<svg width="390" height="122" viewBox="0 0 390 122" fill="none" xmlns="http://www.w3.org/2000/svg">
<path d="M61.0501 0C94.7673 0 122.1 27.1385 122.1 60.6138C122.1 94.0912 94.7673 121.229 61.0501 121.229C27.3328 121.229 0 94.0912 0 60.6138C0 27.1385 27.3328 0 61.0501 0Z" fill="#2B61D1"/>
<path d="M68.1954 95.7887L61.2528 99.7985L46.3359 91.1894L53.1089 87.2783L53.2786 87.1777L53.5389 87.3257L68.1954 95.7887Z" fill="white"/>
<path d="M94.8424 41.6092V49.6817L80.1603 41.2049L76.178 38.9052L72.1959 41.2049L53.5316 51.9813L49.5493 54.2811V59.0342L42.3661 54.8866L38.384 52.5868L34.4037 54.8866L27.6484 58.7837V41.6092L61.2454 22.2139L94.8424 41.6092Z" fill="white"/>
<path d="M94.854 58.881V80.432L76.1897 91.2066L76.1641 91.1928L57.5234 80.432V58.881L76.1897 48.0986L94.854 58.881Z" fill="white"/>
<path d="M49.1213 67.983V80.3748L38.3859 86.5776L27.6484 80.3748V67.983L38.3859 61.7861L49.1213 67.983Z" fill="white"/>
<path d="M168.982 36.8195V57.6073H206.977V72.21H168.982V100.867H149.984V22.2109H212.016V36.8195H168.982Z" fill="white"/>
<path d="M220.328 22.2109H238.618V100.869H220.328V22.2109Z" fill="white"/>
<path d="M316.433 37.7754V100.87H299.078V93.358C294.27 98.8703 287.237 101.801 279.495 101.801C263.663 101.801 252.523 92.8885 252.523 73.4243V37.7754H270.819V70.7262C270.819 81.2818 275.505 85.9718 283.598 85.9718C292.039 85.9718 298.136 80.5796 298.136 68.9649V37.7754H316.433Z" fill="white"/>
<path d="M369.216 100.87L355.378 81.5164L341.091 100.87H321.133L345.404 69.0812L321.957 37.7754H342.477L355.872 56.1865L369.591 37.7754H389.06L365.603 68.6137L389.971 100.87H369.216Z" fill="white"/>
</svg>
