<svg width="470" height="124" viewBox="0 0 470 124" fill="none" xmlns="http://www.w3.org/2000/svg">
<g clip-path="url(#clip0_1177_20)">
<path d="M167.023 0.0185547H182.425V22.4807L203.774 0.0185547H222.047L198.221 24.8934L223.454 61.9624H205.519L187.603 35.2174L182.388 40.6973V61.9624H167.023V0.0185547Z" fill="white"/>
<path d="M252.757 46.14V40.8097C250.431 41.857 247.955 42.6426 245.46 43.1475C239.982 44.3632 237.712 45.7472 237.712 49.1886C237.712 52.6299 240.32 54.1261 243.771 54.1261C249.081 54.1261 252.72 50.9279 252.72 46.14H252.757ZM224.055 44.2884C224.055 34.4881 231.878 31.5331 241.108 30.3361C249.456 29.2887 252.42 28.4284 252.42 25.3985C252.42 22.3686 250.581 20.6293 246.36 20.6293C241.82 20.6293 239.588 22.6305 239.156 26.3524H226.156C226.512 18.1231 232.853 11.0908 246.323 11.0908C253.02 11.0908 257.56 12.3065 260.768 14.7379C264.595 17.5059 266.415 21.845 266.415 27.3997V49.7683C266.415 53.3406 266.771 55.3231 267.934 56.0899V61.9813H254.202C253.358 60.4664 252.833 58.7644 252.682 57.0438H252.514C249.887 60.7656 245.985 63.0848 239.288 63.0848C230.414 63.0848 224.13 58.3156 224.13 49.4878L224.055 44.2884Z" fill="white"/>
<path d="M304.928 39.8183C304.928 32.3745 301.889 26.9881 295.717 26.9881C290.07 26.9881 286.75 32.1875 286.75 39.6499C286.75 47.3742 290.07 52.2183 295.548 52.2183C301.495 52.2183 304.928 47.0937 304.928 39.8183ZM272.398 39.8183C272.398 25.9407 280.409 16.3275 291.89 16.3275C292.153 16.3088 292.415 16.3088 292.678 16.3088C297.406 16.3088 301.833 18.7214 304.365 22.6864H304.628V0.0185547H318.792V61.9624H305.172V55.9214H305.003C302.414 60.5784 297.499 63.4774 292.153 63.4774C292.078 63.4774 292.003 63.4774 291.928 63.4774C280.522 63.4774 272.436 54.7244 272.436 39.8931L272.398 39.8183Z" fill="white"/>
<path d="M356.331 35.0492C355.806 29.7563 352.504 26.3711 347.889 26.3711C342.486 26.3711 339.728 29.7563 338.79 35.0492H356.331ZM324.758 39.7436C324.758 26.4646 334.063 16.3276 347.626 16.3276C347.814 16.3276 348.001 16.3276 348.189 16.3276C353.573 16.3276 358.77 18.3101 362.784 21.8824C368.093 26.7451 370.701 34.4694 370.626 43.4655H338.678C339.541 49.5065 342.842 53.1723 348.677 53.1723C348.883 53.191 349.071 53.191 349.277 53.191C352.222 53.191 354.886 51.4516 356.068 48.7584H369.894C368.769 53.0414 366.105 56.7819 362.428 59.2507C358.507 61.9065 353.873 63.3466 349.127 63.3466C348.921 63.3466 348.696 63.3466 348.489 63.3279C333.781 63.3279 324.758 53.1723 324.758 39.7436Z" fill="white"/>
<path d="M376.758 17.6181H390.396V23.6591H390.659C393.492 19.0769 398.519 16.2715 403.941 16.2715C404.091 16.2715 404.26 16.2715 404.41 16.2715C414.146 16.2715 419.906 23.2102 419.906 33.0854V61.9439H405.723V36.003C405.723 31.3273 403.378 28.1104 398.763 28.1104C394.148 28.1104 390.94 32.0006 390.94 37.4618V61.9439H376.758C376.758 61.9626 376.758 17.6181 376.758 17.6181Z" fill="white"/>
<path d="M454.239 46.14V40.8097C451.913 41.857 449.436 42.6426 446.941 43.1475C441.463 44.3632 439.193 45.7472 439.193 49.1886C439.193 52.6299 441.801 54.1261 445.253 54.1261C450.599 54.1261 454.239 50.9092 454.239 46.14ZM425.536 44.2884C425.536 34.4881 433.378 31.5331 442.589 30.3361C450.937 29.2887 453.901 28.4284 453.901 25.3985C453.901 22.3686 452.081 20.6293 447.842 20.6293C443.302 20.6293 441.069 22.6305 440.638 26.3524H427.562C427.918 18.1231 434.259 11.0908 447.748 11.0908C454.426 11.0908 458.966 12.3065 462.174 14.7379C466.001 17.5059 467.821 21.845 467.821 27.3997V49.7683C467.821 53.3406 468.177 55.3231 469.341 56.0899V61.9813H455.59C454.745 60.4664 454.22 58.7644 454.07 57.0438H453.901C451.293 60.7656 447.373 63.0848 440.694 63.0848C431.821 63.0848 425.461 58.3156 425.461 49.4878L425.536 44.2884Z" fill="white"/>
<path d="M59.4932 45.5977L62.7199 49.7684C62.7199 49.7684 82.099 78.1406 91.7979 92.3174C98.4952 102.136 105.193 111.974 111.89 121.793L113.316 123.981L77.5215 124C65.6465 106.419 42.0651 71.1645 42.0651 71.1645L40.0391 67.4613" fill="url(#paint0_linear_1177_20)"/>
<path d="M31.6095 81.956C31.1781 82.3113 31.1968 82.8911 31.1968 83.3961L30.7091 85.0045L28.3828 47.7858L31.2156 44.756L73.782 0.355354L74.1197 0C85.9385 0.0374057 110.627 0 110.627 0C110.627 0 35.0614 78.3276 31.6095 81.956Z" fill="url(#paint1_linear_1177_20)"/>
<path d="M0.320312 0.0375977H31.2555V123.963H0.320312V0.0375977Z" fill="white"/>
</g>
<defs>
<linearGradient id="paint0_linear_1177_20" x1="34.1377" y1="71.7825" x2="91.0184" y2="93.456" gradientUnits="userSpaceOnUse">
<stop stop-color="#EC058E"/>
<stop offset="0.0705882" stop-color="#EC058E"/>
<stop offset="1" stop-color="white"/>
</linearGradient>
<linearGradient id="paint1_linear_1177_20" x1="40.5801" y1="44.332" x2="107.576" y2="33.9099" gradientUnits="userSpaceOnUse">
<stop stop-color="#EC058E"/>
<stop offset="0.0705882" stop-color="#EC058E"/>
<stop offset="1" stop-color="white"/>
</linearGradient>
<clipPath id="clip0_1177_20">
<rect width="469" height="124" fill="white" transform="translate(0.320312)"/>
</clipPath>
</defs>
</svg>
