<svg width="591" height="81" viewBox="0 0 591 81" fill="none" xmlns="http://www.w3.org/2000/svg">
<path d="M438.317 7.09837C438.317 3.2623 435.954 1 431.424 1H367.214C362.684 1 360.32 3.2623 360.32 7.09837V13L431.621 12.9016C436.052 12.9016 438.416 10.8361 438.317 7.09837Z" fill="#0C9ED9"/>
<path d="M0.320312 5.91544V73.029C0.320312 77.0637 2.68031 78.9334 7.20363 78.9334H70.6284C75.0534 78.9334 77.5118 77.0637 77.5118 73.029C77.5118 69.1912 74.9551 67.1246 70.6284 67.1246H16.1519C13.9886 67.1246 13.1036 66.1405 13.1036 64.074V5.91544C13.1036 2.66801 10.4486 0.0110258 7.20363 0.0110258C7.00696 0.0110258 6.81029 0.0110258 6.71196 0.0110258C3.36864 -0.185788 0.516979 2.2744 0.320312 5.62024C0.320312 5.71864 0.320312 5.81704 0.320312 5.91544ZM109.273 49.6082V6.01386C108.978 2.47121 105.93 -0.185782 102.39 0.109439C99.2434 0.40466 96.785 2.86483 96.4901 6.01386V50.789C96.4901 77.9494 113.305 81 142.51 81C171.715 81 188.53 77.9494 188.53 50.789V6.01386C188.235 2.47121 185.186 -0.185782 181.646 0.109439C178.5 0.40466 176.041 2.86483 175.746 6.01386V49.6082C175.746 71.7497 163.947 68.6991 142.51 68.6991C121.073 68.6991 109.273 71.3561 109.273 49.6082ZM313.413 19.7908V74.1115C313.413 77.3589 316.068 80.0159 319.313 80.0159C319.509 80.0159 319.706 80.0159 319.804 80.0159C322.951 80.3111 325.901 78.0478 326.196 74.8003C326.196 74.6035 326.196 74.3083 326.196 74.1115V8.86765C326.491 4.24253 322.951 0.40466 318.329 0.109439C318.231 0.109439 318.133 0.109439 318.034 0.109439C313.609 0.109439 311.643 2.56961 307.414 6.50589L274.67 38.7834L241.925 6.70272C237.696 2.37281 234.55 0.109439 230.813 0.109439C226.191 0.503067 222.651 4.24253 222.553 8.86765V74.1115C222.553 77.3589 225.208 80.0159 228.453 80.0159C228.65 80.0159 228.846 80.0159 228.945 80.0159C232.091 80.3111 235.041 78.0478 235.336 74.8003C235.336 74.6035 235.336 74.3083 235.336 74.1115V19.594H236.025L267.196 49.2145C270.048 51.9699 272.211 54.1349 274.473 54.1349C277.325 54.1349 278.8 51.8715 281.848 49.2145L312.921 19.7908H313.413ZM360.613 34.3551V73.029C360.613 77.0637 362.973 78.9334 367.496 78.9334H432.199C436.624 78.9334 438.984 77.0637 438.984 73.029C438.984 69.1912 436.624 67.1246 432.199 67.1246H376.444C374.281 67.1246 373.396 66.1405 373.396 64.074V46.2623H415.581C420.104 46.2623 422.464 44.1958 422.464 40.3579C422.464 36.6184 420.104 34.4535 415.581 34.4535L360.613 34.3551ZM561.114 72.4386V6.01386C561.114 2.66802 558.36 0.0110318 555.017 0.109439C554.919 0.109439 554.82 0.109439 554.722 0.109439C551.477 -0.185782 548.625 2.27439 548.33 5.52182C548.33 5.71864 548.33 5.91545 548.33 6.01386V59.8425L484.906 6.60431C480.579 2.96325 478.121 0.207852 473.991 0.207852C469.467 0.207852 466.419 3.25846 466.419 8.96607V74.2099C466.419 77.5558 469.172 80.2127 472.516 80.1143C472.614 80.1143 472.712 80.1143 472.811 80.1143C476.056 80.4096 478.907 77.9494 479.202 74.702C479.202 74.5051 479.202 74.3083 479.202 74.2099V19.2004L541.939 73.1274C546.167 76.6701 549.019 80.0159 553.444 80.0159C557.574 80.1143 561.015 76.9653 561.212 72.7338C561.114 72.6354 561.114 72.537 561.114 72.4386ZM570.062 10.8358C569.964 5.2266 574.389 0.503085 579.994 0.404678C585.599 0.306271 590.22 4.73456 590.319 10.3438C590.319 10.4422 590.319 10.639 590.319 10.7374V10.8358C590.417 16.445 585.992 21.0701 580.387 21.1685C574.782 21.2669 570.16 16.8386 570.062 11.2294C570.062 11.0326 570.062 10.9342 570.062 10.8358ZM589.139 10.7374C589.237 5.71866 585.304 1.68395 580.289 1.58554C575.372 1.48714 571.242 5.42342 571.144 10.4422C571.144 10.5406 571.144 10.639 571.144 10.8358V10.9342C571.045 15.8546 574.979 19.9877 579.994 20.0861C584.91 20.1845 589.04 16.2482 589.139 11.2294C589.139 11.0326 589.139 10.8358 589.139 10.7374ZM576.257 5.42341H580.879C583.14 5.42341 584.812 6.50591 584.812 8.67086C584.91 10.147 583.829 11.4262 582.452 11.8199L585.205 15.7561H582.845L580.387 12.2135H578.224V15.7561H576.257V5.42341ZM580.682 10.5406C582.059 10.5406 582.747 9.85172 582.747 8.86765C582.747 7.78518 581.96 7.19475 580.682 7.19475H578.125V10.5406H580.682Z" fill="white"/>
</svg>
