<svg width="690" height="109" viewBox="0 0 690 109" fill="none" xmlns="http://www.w3.org/2000/svg">
<g clip-path="url(#clip0_1178_156)">
<path fill-rule="evenodd" clip-rule="evenodd" d="M169.405 6.21472C178.321 22.2743 182.26 40.6199 180.72 58.9211C179.181 77.2223 172.233 94.6533 160.759 109H111.193L126.451 82.0388H106.269L130.058 40.153H150.356L169.405 6.26092V6.21472ZM71.5217 109H20.9847C9.29669 94.7159 2.20513 77.233 0.641395 58.8477C-0.922344 40.4623 3.11486 22.0342 12.2228 5.98368L45.0048 62.8864L81.139 0H134.311L71.5448 108.954L71.5217 109Z" fill="white"/>
<path d="M211.188 58.4044C211.188 29.3177 225.683 15.3403 249.495 15.3403C273.307 15.3403 287.779 29.3177 287.779 58.4044C287.779 87.491 273.191 101.307 249.495 101.307C225.798 101.307 211.188 87.2138 211.188 58.4044ZM219.788 58.4044C219.788 82.316 230.7 93.7057 249.495 93.7057C268.29 93.7057 279.179 82.316 279.179 58.4044C279.179 34.4927 268.267 22.9412 249.495 22.9412C230.723 22.9412 219.788 34.3541 219.788 58.4044Z" fill="white"/>
<path d="M350.357 18.7827C350.662 17.9875 351.2 17.3034 351.902 16.8207C352.604 16.338 353.436 16.0796 354.287 16.0797C354.837 16.0766 355.381 16.1828 355.889 16.3921C356.397 16.6014 356.858 16.9097 357.245 17.2989C357.632 17.6882 357.938 18.1506 358.145 18.6592C358.352 19.1678 358.455 19.7124 358.449 20.2613C358.428 20.8861 358.303 21.503 358.079 22.0864L329.366 97.7488C329.1 98.5783 328.577 99.302 327.872 99.8154C327.168 100.329 326.319 100.606 325.447 100.606C324.575 100.606 323.726 100.329 323.022 99.8154C322.318 99.302 321.795 98.5783 321.529 97.7488L292.815 22.0864C292.591 21.503 292.466 20.8861 292.446 20.2613C292.439 19.7124 292.543 19.1678 292.749 18.6592C292.956 18.1506 293.262 17.6882 293.649 17.2989C294.037 16.9097 294.498 16.6014 295.005 16.3921C295.513 16.1828 296.058 16.0766 296.607 16.0797C297.459 16.0796 298.291 16.338 298.992 16.8207C299.694 17.3034 300.233 17.9875 300.537 18.7827L325.436 84.7649L350.357 18.7827Z" fill="white"/>
<path d="M375.881 61.0844V96.4089C375.924 96.9827 375.847 97.559 375.657 98.102C375.467 98.645 375.166 99.1428 374.775 99.5645C374.383 99.9861 373.908 100.322 373.381 100.552C372.853 100.782 372.284 100.901 371.708 100.901C371.132 100.901 370.563 100.782 370.035 100.552C369.507 100.322 369.033 99.9861 368.641 99.5645C368.249 99.1428 367.949 98.645 367.759 98.102C367.568 97.559 367.492 96.9827 367.535 96.4089V20.169C367.492 19.5953 367.568 19.0189 367.759 18.476C367.949 17.933 368.249 17.4351 368.641 17.0135C369.033 16.5918 369.507 16.2555 370.035 16.0255C370.563 15.7955 371.132 15.6768 371.708 15.6768C372.284 15.6768 372.853 15.7955 373.381 16.0255C373.908 16.2555 374.383 16.5918 374.775 17.0135C375.166 17.4351 375.467 17.933 375.657 18.476C375.847 19.0189 375.924 19.5953 375.881 20.169V53.4835H418.604V20.2614C418.561 19.6877 418.637 19.1113 418.827 18.5684C419.018 18.0254 419.318 17.5275 419.71 17.1059C420.101 16.6842 420.576 16.3479 421.104 16.1179C421.631 15.8879 422.201 15.7692 422.777 15.7692C423.352 15.7692 423.922 15.8879 424.45 16.1179C424.977 16.3479 425.452 16.6842 425.843 17.1059C426.235 17.5275 426.535 18.0254 426.726 18.5684C426.916 19.1113 426.992 19.6877 426.949 20.2614V96.5014C426.992 97.0751 426.916 97.6514 426.726 98.1944C426.535 98.7374 426.235 99.2353 425.843 99.6569C425.452 100.079 424.977 100.415 424.45 100.645C423.922 100.875 423.352 100.994 422.777 100.994C422.201 100.994 421.631 100.875 421.104 100.645C420.576 100.415 420.101 100.079 419.71 99.6569C419.318 99.2353 419.018 98.7374 418.827 98.1944C418.637 97.6514 418.561 97.0751 418.604 96.5014V61.0844H375.881Z" fill="white"/>
<path d="M466.346 42.2093C469.936 42.0552 473.511 42.7392 476.79 44.207C480.069 45.6747 482.96 47.8859 485.234 50.665C485.782 51.3108 486.085 52.1287 486.089 52.9753C486.099 53.4451 486.013 53.912 485.838 54.3479C485.662 54.7838 485.4 55.1798 485.068 55.5121C484.735 55.8443 484.339 56.1061 483.903 56.2815C483.467 56.457 482.999 56.5426 482.529 56.5331C481.958 56.5368 481.393 56.4047 480.883 56.1476C480.372 55.8906 479.93 55.5159 479.593 55.0545C477.996 53.1242 475.961 51.6033 473.657 50.6187C471.352 49.6341 468.846 49.2143 466.346 49.3943C455.041 49.3943 449.031 56.6256 449.031 71.7118C449.031 86.7981 455.041 94.1448 466.346 94.1448C471.555 94.096 476.583 92.2331 480.564 88.8773C481.21 88.3299 482.029 88.0273 482.876 88.0225C483.82 88.0225 484.726 88.3974 485.393 89.0646C486.061 89.7318 486.436 90.6368 486.436 91.5804C486.432 92.1788 486.285 92.7676 486.008 93.2979C485.73 93.8283 485.33 94.2849 484.841 94.63C479.686 99.0098 473.112 101.366 466.346 101.261C450.51 101.261 441.055 91.8114 441.055 71.7118C441.055 51.6122 450.51 42.2093 466.346 42.2093Z" fill="white"/>
<path d="M505.485 16.1954V86.3593C505.485 91.2571 507.08 93.2902 510.386 93.2902C510.895 93.2499 511.407 93.3152 511.889 93.4821C512.371 93.6491 512.814 93.9139 513.189 94.26C513.564 94.6061 513.863 95.026 514.067 95.4933C514.272 95.9605 514.378 96.4651 514.378 96.9751C514.378 97.4851 514.272 97.9897 514.067 98.4569C513.863 98.9242 513.564 99.3441 513.189 99.6902C512.814 100.036 512.371 100.301 511.889 100.468C511.407 100.635 510.895 100.7 510.386 100.66C502.179 100.66 497.625 95.7391 497.625 86.3131V16.1954C497.654 15.1652 498.079 14.1856 498.81 13.459C499.541 12.7324 500.524 12.3143 501.555 12.291C502.593 12.291 503.59 12.7016 504.326 13.4332C505.062 14.1647 505.479 15.1578 505.485 16.1954Z" fill="white"/>
<path d="M572.367 71.6422C572.367 91.7418 562.542 101.191 546.59 101.191C530.638 101.191 520.836 91.7418 520.836 71.6422C520.836 51.5426 530.777 42.209 546.59 42.209C562.403 42.209 572.367 51.5195 572.367 71.6422ZM564.391 71.6422C564.391 56.1863 557.895 49.3247 546.59 49.3247C535.285 49.3247 528.812 56.2556 528.812 71.6422C528.812 87.0288 535.308 94.0752 546.59 94.0752C557.872 94.0752 564.484 87.3292 564.484 71.6422H564.391Z" fill="white"/>
<path d="M591.275 46.8759V78.8736C591.275 86.8441 593.841 93.7057 606.233 93.7057C618.624 93.7057 621.213 86.7748 621.213 78.8736V46.8759C621.219 46.3521 621.329 45.8346 621.536 45.3533C621.743 44.872 622.043 44.4362 622.419 44.0712C622.795 43.7062 623.239 43.4191 623.727 43.2264C624.214 43.0337 624.735 42.9392 625.259 42.9484C625.768 42.9544 626.271 43.0609 626.739 43.2619C627.206 43.4628 627.629 43.7542 627.984 44.1192C628.338 44.4842 628.617 44.9157 628.804 45.3888C628.991 45.8619 629.083 46.3673 629.074 46.8759V78.8736C629.074 90.4251 625.259 101.191 606.233 101.191C587.206 101.191 583.415 90.5175 583.415 78.8736V46.8759C583.405 46.3575 583.501 45.8426 583.695 45.3619C583.889 44.8811 584.178 44.4444 584.545 44.0778C584.912 43.7112 585.349 43.4223 585.83 43.2282C586.311 43.0342 586.826 42.939 587.345 42.9484C588.385 42.9545 589.381 43.3702 590.117 44.1054C590.853 44.8407 591.269 45.8361 591.275 46.8759Z" fill="white"/>
<path d="M681.461 50.1796V16.1951C681.461 15.1535 681.875 14.1545 682.612 13.4179C683.349 12.6814 684.348 12.2676 685.391 12.2676C686.433 12.2676 687.433 12.6814 688.17 13.4179C688.907 14.1545 689.321 15.1535 689.321 16.1951V77.1177C689.321 93.2898 679.264 101.283 665.278 101.283C649.441 101.283 640.102 91.8343 640.102 71.7347C640.102 51.6351 648.956 42.3015 664.769 42.3015C667.97 42.2427 671.142 42.923 674.037 44.2895C676.932 45.6559 679.472 47.6716 681.461 50.1796ZM681.461 60.1139C681.461 60.1139 676.837 49.3248 665.278 49.3248C653.718 49.3248 647.962 56.556 647.962 71.6423C647.962 86.7286 653.973 94.0753 665.278 94.0753C674.71 94.0753 681.461 88.6923 681.461 77.0253V60.1139Z" fill="white"/>
</g>
<defs>
<clipPath id="clip0_1178_156">
<rect width="689" height="109" fill="white" transform="translate(0.320312)"/>
</clipPath>
</defs>
</svg>
