<svg width="665" height="114" viewBox="0 0 665 114" fill="none" xmlns="http://www.w3.org/2000/svg">
<g clip-path="url(#clip0_1177_134)">
<path d="M184.375 82.6652L209 52.1647C212.815 47.5852 219.748 40.6807 219.748 40.6807H185.834V23.2651H244.056V37.408L219.298 67.4757C215.171 72.6153 208.236 79.5537 208.236 79.5537H245.207V96.9438H184.375V82.6652Z" fill="#DA4DFC"/>
<path d="M253.503 60.1042C253.44 55.0683 254.382 50.0705 256.276 45.4039C258.17 40.7373 260.976 36.4959 264.531 32.9286C268.086 29.3612 272.318 26.5397 276.978 24.6296C281.637 22.7195 286.632 21.7593 291.667 21.8053C311.713 21.8053 327.476 38.8984 327.476 59.8383C327.458 62.2015 327.313 64.562 327.043 66.9097H273.514C275.871 77.0643 284.263 81.9436 293.99 81.9436C301.031 81.9879 307.935 79.9937 313.868 76.2016L321.222 90.3445C313.074 95.6695 303.542 98.4853 293.809 98.4427C272.352 98.437 253.503 84.4299 253.503 60.1042ZM308.893 53.7993C308.331 49.4868 306.206 45.5303 302.922 42.6797C299.638 39.8291 295.422 38.2823 291.073 38.3326C286.763 38.4168 282.618 40.011 279.362 42.8373C276.105 45.6637 273.944 49.543 273.254 53.7993H308.893Z" fill="#DA4DFC"/>
<path d="M340.422 0H360.168V96.9748H340.422V0Z" fill="#DA4DFC"/>
<path d="M372.977 60.1018C373.009 54.9918 374.057 49.9392 376.06 45.2379C378.063 40.5367 380.98 36.2804 384.642 32.7167C388.305 29.153 392.639 26.3529 397.393 24.4793C402.147 22.6057 407.226 21.6959 412.335 21.8029C421.967 21.7256 431.315 25.0649 438.719 31.2277L426.771 45.0679C422.908 41.6819 417.902 39.8903 412.767 40.0557C407.479 40.1756 402.452 42.381 398.782 46.1914C395.112 50.0018 393.097 55.1082 393.176 60.3979C393.255 65.6876 395.421 70.7317 399.202 74.4312C402.984 78.1306 408.074 80.1854 413.364 80.1479C419.285 80.2105 425.014 78.0564 429.427 74.1089L439.893 88.8457C432.126 95.1871 422.371 98.5839 412.346 98.4374C407.234 98.5421 402.153 97.6296 397.397 95.7531C392.641 93.8765 388.305 91.0732 384.642 87.5062C380.978 83.9392 378.061 79.6796 376.058 74.975C374.056 70.2705 373.008 65.2147 372.977 60.1018Z" fill="#DA4DFC"/>
<path d="M445.485 60.1042C445.257 52.2545 447.378 44.5155 451.574 37.8781C455.771 31.2407 461.854 26.0071 469.043 22.8476C476.232 19.688 484.2 18.7464 491.928 20.1431C499.655 21.5399 506.79 25.2116 512.418 30.6879C518.046 36.1642 521.911 43.1959 523.519 50.8825C525.127 58.5691 524.404 66.5607 521.442 73.8338C518.481 81.1069 513.417 87.3306 506.897 91.7077C500.377 96.0848 492.699 98.4161 484.846 98.4031C479.737 98.5104 474.658 97.6009 469.904 95.7274C465.149 93.854 460.815 91.054 457.152 87.4903C453.49 83.9265 450.572 79.6702 448.569 74.9687C446.566 70.2672 445.518 65.2144 445.485 60.1042ZM504.125 60.1042C503.984 56.3148 502.732 52.6507 500.524 49.5679C498.316 46.4852 495.25 44.1201 491.708 42.7671C488.165 41.4141 484.303 41.1331 480.603 41.9589C476.902 42.7848 473.526 44.681 470.895 47.4116C468.264 50.1422 466.494 53.5864 465.806 57.3154C465.118 61.0444 465.542 64.8935 467.025 68.3833C468.508 71.873 470.985 74.8494 474.147 76.9417C477.31 79.034 481.018 80.1499 484.81 80.1503C487.414 80.1681 489.994 79.6562 492.393 78.6457C494.793 77.6352 496.962 76.1472 498.769 74.2722C500.576 72.3972 501.982 70.1743 502.903 67.7386C503.824 65.303 504.24 62.7055 504.125 60.1042Z" fill="#DA4DFC"/>
<path d="M537.148 23.2652H556.597V37.408C558.653 31.369 566.188 21.7773 582.384 21.7773V43.2745C565.291 43.2745 556.897 51.0729 556.897 68.6298V96.941H537.148V23.2652Z" fill="#DA4DFC"/>
<path d="M590.347 60.1042C590.283 55.0683 591.226 50.0705 593.12 45.4039C595.014 40.7373 597.821 36.4959 601.375 32.9286C604.93 29.3612 609.162 26.5397 613.821 24.6296C618.481 22.7195 623.476 21.7593 628.511 21.8053C648.557 21.8053 664.32 38.8984 664.32 59.8383C664.302 62.2014 664.159 64.5619 663.89 66.9097H610.358C612.714 77.0643 621.107 81.9436 630.834 81.9436C637.875 81.9879 644.779 79.9937 650.712 76.2016L658.066 90.3445C649.919 95.669 640.388 98.4848 630.656 98.4427C609.196 98.437 590.347 84.4299 590.347 60.1042ZM645.737 53.7993C645.175 49.4868 643.05 45.5303 639.766 42.6797C636.482 39.8291 632.266 38.2823 627.918 38.3326C623.607 38.4168 619.462 40.011 616.206 42.8373C612.949 45.6637 610.788 49.543 610.098 53.7993H645.737Z" fill="#DA4DFC"/>
<path d="M118.993 80.1844V26.9167L72.8639 0.299805L26.7344 26.9167V80.1844L72.8639 106.835L118.993 80.1844Z" fill="url(#paint0_linear_1177_134)"/>
<path opacity="0.56" d="M72.8384 53.6667L26.7344 27.0498V80.1846L72.8384 106.801V53.6667Z" fill="url(#paint1_linear_1177_134)"/>
<path opacity="0.56" d="M72.8359 106.798L72.8699 106.832L118.999 80.1815V27.0496L118.965 27.0156L72.8359 53.6664V106.798Z" fill="url(#paint2_linear_1177_134)"/>
<path d="M113.16 39.3623L80.8359 58.0139V95.3172L113.16 114.003L145.483 95.3172V58.0139L113.16 39.3623Z" fill="white"/>
<path d="M32.6441 39.3623L0.320312 58.0139V95.3172L32.6441 114.003L64.9678 95.3172V58.0139L32.6441 39.3623Z" fill="white"/>
<path d="M113.16 76.6626L80.8359 58.011L113.16 39.3594L145.483 58.011L113.16 76.6626Z" fill="white"/>
<path d="M113.16 114L80.8359 95.3145V58.0112L113.16 76.6628V114Z" fill="url(#paint3_linear_1177_134)"/>
<path d="M145.48 95.3145L113.156 114V76.6628L145.48 58.0112V95.3145Z" fill="url(#paint4_linear_1177_134)"/>
<path d="M32.6441 76.6626L0.320312 58.011L32.6441 39.3594L64.9678 58.011L32.6441 76.6626Z" fill="white"/>
<path d="M32.6441 114L0.320312 95.3145V58.0112L32.6441 76.6628V114Z" fill="url(#paint5_linear_1177_134)"/>
<path d="M64.9644 95.3145L32.6406 114V76.6628L64.9644 58.0112V95.3145Z" fill="url(#paint6_linear_1177_134)"/>
</g>
<defs>
<linearGradient id="paint0_linear_1177_134" x1="118.532" y1="195.047" x2="26.8266" y2="195.047" gradientUnits="userSpaceOnUse">
<stop stop-color="#4171F7"/>
<stop offset="1" stop-color="#F74BDA"/>
</linearGradient>
<linearGradient id="paint1_linear_1177_134" x1="32.6818" y1="218.773" x2="63.674" y2="212.475" gradientUnits="userSpaceOnUse">
<stop stop-color="white" stop-opacity="0"/>
<stop offset="1" stop-color="white" stop-opacity="0.4"/>
</linearGradient>
<linearGradient id="paint2_linear_1177_134" x1="76.8522" y1="198.781" x2="115.443" y2="205.319" gradientUnits="userSpaceOnUse">
<stop stop-color="#231F20" stop-opacity="0.4"/>
<stop offset="1" stop-color="#231F20" stop-opacity="0"/>
</linearGradient>
<linearGradient id="paint3_linear_1177_134" x1="91.5351" y1="200.615" x2="113.77" y2="237.422" gradientUnits="userSpaceOnUse">
<stop stop-color="#EAE8FC"/>
<stop offset="0.52" stop-color="#F7F7FE"/>
<stop offset="1" stop-color="white"/>
</linearGradient>
<linearGradient id="paint4_linear_1177_134" x1="133.714" y1="208.845" x2="113.332" y2="237.181" gradientUnits="userSpaceOnUse">
<stop stop-color="#DAD4F4"/>
<stop offset="0.65" stop-color="#F1EFFB"/>
<stop offset="1" stop-color="white"/>
</linearGradient>
<linearGradient id="paint5_linear_1177_134" x1="11.0195" y1="200.615" x2="33.254" y2="237.422" gradientUnits="userSpaceOnUse">
<stop stop-color="#EAE8FC"/>
<stop offset="0.52" stop-color="#F7F7FE"/>
<stop offset="1" stop-color="white"/>
</linearGradient>
<linearGradient id="paint6_linear_1177_134" x1="53.1985" y1="208.845" x2="32.8165" y2="237.181" gradientUnits="userSpaceOnUse">
<stop stop-color="#DAD4F4"/>
<stop offset="0.65" stop-color="#F1EFFB"/>
<stop offset="1" stop-color="white"/>
</linearGradient>
<clipPath id="clip0_1177_134">
<rect width="664" height="114" fill="white" transform="translate(0.320312)"/>
</clipPath>
</defs>
</svg>
